<?xml version="1.0" encoding="UTF-8"?>
<!DOCTYPE svg PUBLIC "-//W3C//DTD SVG 1.1//EN" "http://www.w3.org/Graphics/SVG/1.1/DTD/svg11.dtd">
<svg xmlns="http://www.w3.org/2000/svg" version="1.1" width="500px" height="500px" style="shape-rendering:geometricPrecision; text-rendering:geometricPrecision; image-rendering:optimizeQuality; fill-rule:evenodd; clip-rule:evenodd" xmlns:xlink="http://www.w3.org/1999/xlink">
<g><path style="opacity:1" fill="#3587ba" d="M -0.5,-0.5 C 24.1667,-0.5 48.8333,-0.5 73.5,-0.5C 76.1013,2.33713 76.1013,5.17047 73.5,8C 51.8359,8.49996 30.1692,8.66663 8.5,8.5C 8.66665,38.1685 8.49998,67.8352 8,97.5C 5.51403,100.999 2.6807,101.332 -0.5,98.5C -0.5,65.5 -0.5,32.5 -0.5,-0.5 Z"/></g>
<g><path style="opacity:1" fill="#fefefe" d="M 73.5,-0.5 C 121.833,-0.5 170.167,-0.5 218.5,-0.5C 215.668,2.6807 216.001,5.51403 219.5,8C 241.164,8.49996 262.831,8.66663 284.5,8.5C 284.333,38.5019 284.5,68.5019 285,98.5C 287.966,101.265 290.633,100.932 293,97.5C 293.667,65.8333 293.667,34.1667 293,2.5C 291.955,1.62656 291.122,0.626561 290.5,-0.5C 360.167,-0.5 429.833,-0.5 499.5,-0.5C 499.5,45.5 499.5,91.5 499.5,137.5C 406.167,137.5 312.833,137.5 219.5,137.5C 219.334,132.156 219.501,126.823 220,121.5C 224.304,123.414 228.804,123.914 233.5,123C 233.957,122.586 234.291,122.086 234.5,121.5C 226.849,110.193 221.349,97.8594 218,84.5C 213.053,72.5511 204.553,64.3845 192.5,60C 187.446,59.219 182.446,59.3857 177.5,60.5C 168.811,48.1554 156.811,42.1554 141.5,42.5C 121.31,44.1778 104.81,52.8445 92,68.5C 85.3333,78.5 78.6667,88.5 72,98.5C 67.3713,104.135 61.8713,108.635 55.5,112C 56.7158,113.74 58.3825,114.74 60.5,115C 65.2166,115.476 69.8832,115.476 74.5,115C 72.9963,116.491 72.1629,118.324 72,120.5C 71.5006,126.157 71.3339,131.824 71.5,137.5C 57.806,138.673 48.9727,146.006 45,159.5C 44.5,203.832 44.3333,248.165 44.5,292.5C 44.5,296.833 44.5,301.167 44.5,305.5C 32.5,305.5 20.5,305.5 8.5,305.5C 8.66665,275.831 8.49998,246.165 8,216.5C 5.51403,213.001 2.6807,212.668 -0.5,215.5C -0.5,176.5 -0.5,137.5 -0.5,98.5C 2.6807,101.332 5.51403,100.999 8,97.5C 8.49998,67.8352 8.66665,38.1685 8.5,8.5C 30.1692,8.66663 51.8359,8.49996 73.5,8C 76.1013,5.17047 76.1013,2.33713 73.5,-0.5 Z"/></g>
<g><path style="opacity:1" fill="#3a88bb" d="M 218.5,-0.5 C 242.5,-0.5 266.5,-0.5 290.5,-0.5C 291.122,0.626561 291.955,1.62656 293,2.5C 293.667,34.1667 293.667,65.8333 293,97.5C 290.633,100.932 287.966,101.265 285,98.5C 284.5,68.5019 284.333,38.5019 284.5,8.5C 262.831,8.66663 241.164,8.49996 219.5,8C 216.001,5.51403 215.668,2.6807 218.5,-0.5 Z"/></g>
<g><path style="opacity:1" fill="#604534" d="M 219.5,137.5 C 218.46,143.66 216.793,149.66 214.5,155.5C 207.664,151.146 201.33,151.812 195.5,157.5C 197.262,148.048 194.929,139.881 188.5,133C 178.536,127.673 168.536,122.339 158.5,117C 155.354,114.688 152.354,112.188 149.5,109.5C 147.465,118.25 148.799,126.417 153.5,134C 146.146,132.358 139.979,128.525 135,122.5C 131.045,116.961 128.045,110.961 126,104.5C 124.444,109.28 122.111,113.613 119,117.5C 113,123.5 107,129.5 101,135.5C 97.0431,141.95 95.5431,148.95 96.5,156.5C 90.6556,151.802 84.6556,151.468 78.5,155.5C 75.376,149.793 73.0427,143.793 71.5,137.5C 71.3339,131.824 71.5006,126.157 72,120.5C 72.1629,118.324 72.9963,116.491 74.5,115C 69.8832,115.476 65.2166,115.476 60.5,115C 58.3825,114.74 56.7158,113.74 55.5,112C 61.8713,108.635 67.3713,104.135 72,98.5C 78.6667,88.5 85.3333,78.5 92,68.5C 104.81,52.8445 121.31,44.1778 141.5,42.5C 156.811,42.1554 168.811,48.1554 177.5,60.5C 182.446,59.3857 187.446,59.219 192.5,60C 204.553,64.3845 213.053,72.5511 218,84.5C 221.349,97.8594 226.849,110.193 234.5,121.5C 234.291,122.086 233.957,122.586 233.5,123C 228.804,123.914 224.304,123.414 220,121.5C 219.501,126.823 219.334,132.156 219.5,137.5 Z"/></g>
<g><path style="opacity:1" fill="#fed6d1" d="M 195.5,157.5 C 195.47,172.473 195.47,187.14 195.5,201.5C 191.241,215.998 183.408,228.331 172,238.5C 171.501,243.823 171.334,249.156 171.5,254.5C 171.167,254.5 170.833,254.5 170.5,254.5C 170.827,249.786 170.493,245.12 169.5,240.5C 153.29,250.07 137.29,249.737 121.5,239.5C 109.647,229.122 101.314,216.456 96.5,201.5C 96.6126,186.696 96.6126,171.696 96.5,156.5C 95.5431,148.95 97.0431,141.95 101,135.5C 107,129.5 113,123.5 119,117.5C 122.111,113.613 124.444,109.28 126,104.5C 128.045,110.961 131.045,116.961 135,122.5C 139.979,128.525 146.146,132.358 153.5,134C 148.799,126.417 147.465,118.25 149.5,109.5C 152.354,112.188 155.354,114.688 158.5,117C 168.536,122.339 178.536,127.673 188.5,133C 194.929,139.881 197.262,148.048 195.5,157.5 Z"/></g>
<g><path style="opacity:1" fill="#c1e5f8" d="M 219.5,137.5 C 312.833,137.5 406.167,137.5 499.5,137.5C 499.5,148.5 499.5,159.5 499.5,170.5C 444.499,170.333 389.499,170.5 334.5,171C 329.476,173.879 325.976,178.046 324,183.5C 323.333,213.833 323.333,244.167 324,274.5C 325.986,279.991 329.486,284.158 334.5,287C 389.499,287.5 444.499,287.667 499.5,287.5C 499.5,300.833 499.5,314.167 499.5,327.5C 447.499,327.333 395.499,327.5 343.5,328C 340.833,330.667 340.833,333.333 343.5,336C 395.499,336.5 447.499,336.667 499.5,336.5C 499.5,346.167 499.5,355.833 499.5,365.5C 447.499,365.333 395.499,365.5 343.5,366C 341.327,367.865 340.993,370.031 342.5,372.5C 394.829,373.5 447.162,373.833 499.5,373.5C 499.5,390.833 499.5,408.167 499.5,425.5C 432.5,425.5 365.5,425.5 298.5,425.5C 298.5,425.167 298.5,424.833 298.5,424.5C 298.434,399.038 296.6,373.704 293,348.5C 291.47,336.064 287.303,324.73 280.5,314.5C 283.85,314.665 287.183,314.498 290.5,314C 291.333,313.167 292.167,312.333 293,311.5C 293.667,279.833 293.667,248.167 293,216.5C 290.633,213.068 287.966,212.735 285,215.5C 284.5,245.498 284.333,275.498 284.5,305.5C 279.167,305.5 273.833,305.5 268.5,305.5C 239.336,287.658 208.336,273.658 175.5,263.5C 174.758,261.02 173.758,258.687 172.5,256.5C 172.167,255.833 171.833,255.167 171.5,254.5C 171.334,249.156 171.501,243.823 172,238.5C 183.408,228.331 191.241,215.998 195.5,201.5C 204.266,196.894 210.433,189.894 214,180.5C 215.583,175.755 216.749,170.922 217.5,166C 217.392,162.184 216.392,158.684 214.5,155.5C 216.793,149.66 218.46,143.66 219.5,137.5 Z"/></g>
<g><path style="opacity:1" fill="#c2e5f8" d="M 71.5,137.5 C 73.0427,143.793 75.376,149.793 78.5,155.5C 73.7561,172.457 78.0894,186.957 91.5,199C 93.0779,200.094 94.7446,200.928 96.5,201.5C 101.314,216.456 109.647,229.122 121.5,239.5C 121.5,244.5 121.5,249.5 121.5,254.5C 121.5,254.833 121.5,255.167 121.5,255.5C 119.847,258.131 118.181,260.797 116.5,263.5C 91.8024,271.518 67.8024,281.185 44.5,292.5C 44.3333,248.165 44.5,203.832 45,159.5C 48.9727,146.006 57.806,138.673 71.5,137.5 Z"/></g>
<g><path style="opacity:1" fill="#fcc3b9" d="M 96.5,156.5 C 96.6126,171.696 96.6126,186.696 96.5,201.5C 94.7446,200.928 93.0779,200.094 91.5,199C 78.0894,186.957 73.7561,172.457 78.5,155.5C 84.6556,151.468 90.6556,151.802 96.5,156.5 Z"/></g>
<g><path style="opacity:1" fill="#fcc4b9" d="M 214.5,155.5 C 216.392,158.684 217.392,162.184 217.5,166C 216.749,170.922 215.583,175.755 214,180.5C 210.433,189.894 204.266,196.894 195.5,201.5C 195.47,187.14 195.47,172.473 195.5,157.5C 201.33,151.812 207.664,151.146 214.5,155.5 Z"/></g>
<g><path style="opacity:1" fill="#93b2b8" d="M 499.5,170.5 C 499.5,180.5 499.5,190.5 499.5,200.5C 447.499,200.333 395.499,200.5 343.5,201C 340.833,203.667 340.833,206.333 343.5,209C 395.499,209.5 447.499,209.667 499.5,209.5C 499.5,214.5 499.5,219.5 499.5,224.5C 447.499,224.333 395.499,224.5 343.5,225C 340.833,227.667 340.833,230.333 343.5,233C 395.499,233.5 447.499,233.667 499.5,233.5C 499.5,251.5 499.5,269.5 499.5,287.5C 444.499,287.667 389.499,287.5 334.5,287C 329.486,284.158 325.986,279.991 324,274.5C 323.333,244.167 323.333,213.833 324,183.5C 325.976,178.046 329.476,173.879 334.5,171C 389.499,170.5 444.499,170.333 499.5,170.5 Z"/></g>
<g><path style="opacity:1" fill="#f6ecb6" d="M 499.5,200.5 C 499.5,203.5 499.5,206.5 499.5,209.5C 447.499,209.667 395.499,209.5 343.5,209C 340.833,206.333 340.833,203.667 343.5,201C 395.499,200.5 447.499,200.333 499.5,200.5 Z"/></g>
<g><path style="opacity:1" fill="#3486ba" d="M 44.5,305.5 C 54.1724,305.334 63.8391,305.5 73.5,306C 76.1667,308.667 76.1667,311.333 73.5,314C 63.8391,314.5 54.1724,314.666 44.5,314.5C 44.1667,314.5 43.8333,314.5 43.5,314.5C 29.8293,314.667 16.1626,314.5 2.5,314C 1.30943,313.302 0.309426,312.469 -0.5,311.5C -0.5,279.5 -0.5,247.5 -0.5,215.5C 2.6807,212.668 5.51403,213.001 8,216.5C 8.49998,246.165 8.66665,275.831 8.5,305.5C 20.5,305.5 32.5,305.5 44.5,305.5 Z"/></g>
<g><path style="opacity:1" fill="#3587ba" d="M 280.5,314.5 C 259.787,314.822 239.121,314.488 218.5,313.5C 215.738,310.612 216.071,308.112 219.5,306C 235.83,305.5 252.163,305.333 268.5,305.5C 273.833,305.5 279.167,305.5 284.5,305.5C 284.333,275.498 284.5,245.498 285,215.5C 287.966,212.735 290.633,213.068 293,216.5C 293.667,248.167 293.667,279.833 293,311.5C 292.167,312.333 291.333,313.167 290.5,314C 287.183,314.498 283.85,314.665 280.5,314.5 Z"/></g>
<g><path style="opacity:1" fill="#f6ecb6" d="M 499.5,224.5 C 499.5,227.5 499.5,230.5 499.5,233.5C 447.499,233.667 395.499,233.5 343.5,233C 340.833,230.333 340.833,227.667 343.5,225C 395.499,224.5 447.499,224.333 499.5,224.5 Z"/></g>
<g><path style="opacity:1" fill="#f6b6ad" d="M 121.5,239.5 C 137.29,249.737 153.29,250.07 169.5,240.5C 170.493,245.12 170.827,249.786 170.5,254.5C 170.5,254.833 170.5,255.167 170.5,255.5C 162.451,259.943 154.284,264.276 146,268.5C 137.741,263.955 129.574,259.288 121.5,254.5C 121.5,249.5 121.5,244.5 121.5,239.5 Z"/></g>
<g><path style="opacity:1" fill="#8ec9ee" d="M 121.5,254.5 C 129.574,259.288 137.741,263.955 146,268.5C 154.284,264.276 162.451,259.943 170.5,255.5C 170.5,263.167 170.5,270.833 170.5,278.5C 166.5,282.833 162.5,287.167 158.5,291.5C 154.765,284.365 150.765,277.365 146.5,270.5C 141.983,277.532 137.983,284.866 134.5,292.5C 130.54,287.205 126.207,282.205 121.5,277.5C 121.5,270.167 121.5,262.833 121.5,255.5C 121.5,255.167 121.5,254.833 121.5,254.5 Z"/></g>
<g><path style="opacity:1" fill="#8bcb8f" d="M 172.5,256.5 C 173.758,258.687 174.758,261.02 175.5,263.5C 185.269,280.035 194.269,297.035 202.5,314.5C 197.303,324.392 191.97,334.225 186.5,344C 191.716,354.931 197.049,365.764 202.5,376.5C 197.093,392.386 192.093,408.386 187.5,424.5C 182.167,424.5 176.833,424.5 171.5,424.5C 171.168,368.331 171.501,312.331 172.5,256.5 Z"/></g>
<g><path style="opacity:1" fill="#f8edb6" d="M 401.5,257.5 C 432.168,257.333 462.835,257.5 493.5,258C 494.833,260.333 494.833,262.667 493.5,265C 462.833,265.667 432.167,265.667 401.5,265C 400.221,262.502 400.221,260.002 401.5,257.5 Z"/></g>
<g><path style="opacity:1" fill="#8bcb8f" d="M 121.5,255.5 C 121.5,262.833 121.5,270.167 121.5,277.5C 121.5,326.5 121.5,375.5 121.5,424.5C 116.167,424.5 110.833,424.5 105.5,424.5C 100.506,408.518 95.5063,392.518 90.5,376.5C 95.68,365.974 101.013,355.474 106.5,345C 100.967,334.769 95.3005,324.602 89.5,314.5C 98.7801,297.605 107.78,280.605 116.5,263.5C 118.181,260.797 119.847,258.131 121.5,255.5 Z"/></g>
<g><path style="opacity:1" fill="#5cc096" d="M 116.5,263.5 C 107.78,280.605 98.7801,297.605 89.5,314.5C 95.3005,324.602 100.967,334.769 106.5,345C 101.013,355.474 95.68,365.974 90.5,376.5C 95.5063,392.518 100.506,408.518 105.5,424.5C 85.1667,424.5 64.8333,424.5 44.5,424.5C 44.5,387.833 44.5,351.167 44.5,314.5C 54.1724,314.666 63.8391,314.5 73.5,314C 76.1667,311.333 76.1667,308.667 73.5,306C 63.8391,305.5 54.1724,305.334 44.5,305.5C 44.5,301.167 44.5,296.833 44.5,292.5C 67.8024,281.185 91.8024,271.518 116.5,263.5 Z"/></g>
<g><path style="opacity:1" fill="#5cc096" d="M 175.5,263.5 C 208.336,273.658 239.336,287.658 268.5,305.5C 252.163,305.333 235.83,305.5 219.5,306C 216.071,308.112 215.738,310.612 218.5,313.5C 239.121,314.488 259.787,314.822 280.5,314.5C 287.303,324.73 291.47,336.064 293,348.5C 296.6,373.704 298.434,399.038 298.5,424.5C 291.825,424.666 285.158,424.5 278.5,424C 273.131,417.057 269.631,409.224 268,400.5C 266.874,387.862 266.208,375.195 266,362.5C 263.282,359.93 260.615,359.93 258,362.5C 257.5,383.164 257.333,403.831 257.5,424.5C 234.167,424.5 210.833,424.5 187.5,424.5C 192.093,408.386 197.093,392.386 202.5,376.5C 197.049,365.764 191.716,354.931 186.5,344C 191.97,334.225 197.303,324.392 202.5,314.5C 194.269,297.035 185.269,280.035 175.5,263.5 Z"/></g>
<g><path style="opacity:1" fill="#3185b9" d="M 158.5,291.5 C 157.277,294.274 155.777,296.941 154,299.5C 155.07,338.155 156.236,376.822 157.5,415.5C 157.5,418.833 157.5,422.167 157.5,425.5C 149.833,425.5 142.167,425.5 134.5,425.5C 136.155,385 137.821,344.5 139.5,304C 138.781,299.731 137.114,295.898 134.5,292.5C 137.983,284.866 141.983,277.532 146.5,270.5C 150.765,277.365 154.765,284.365 158.5,291.5 Z"/></g>
<g><path style="opacity:1" fill="#b3dce6" d="M 170.5,254.5 C 170.833,254.5 171.167,254.5 171.5,254.5C 171.833,255.167 172.167,255.833 172.5,256.5C 171.501,312.331 171.168,368.331 171.5,424.5C 171.5,424.833 171.5,425.167 171.5,425.5C 166.833,425.5 162.167,425.5 157.5,425.5C 157.5,422.167 157.5,418.833 157.5,415.5C 158.477,418.287 158.81,421.287 158.5,424.5C 162.5,424.5 166.5,424.5 170.5,424.5C 170.5,375.833 170.5,327.167 170.5,278.5C 170.5,270.833 170.5,263.167 170.5,255.5C 170.5,255.167 170.5,254.833 170.5,254.5 Z"/></g>
<g><path style="opacity:1" fill="#c0e4f8" d="M 121.5,277.5 C 126.207,282.205 130.54,287.205 134.5,292.5C 137.114,295.898 138.781,299.731 139.5,304C 137.821,344.5 136.155,385 134.5,425.5C 130.167,425.5 125.833,425.5 121.5,425.5C 121.5,425.167 121.5,424.833 121.5,424.5C 121.5,375.5 121.5,326.5 121.5,277.5 Z"/></g>
<g><path style="opacity:1" fill="#c1e5f8" d="M 170.5,278.5 C 170.5,327.167 170.5,375.833 170.5,424.5C 166.5,424.5 162.5,424.5 158.5,424.5C 158.81,421.287 158.477,418.287 157.5,415.5C 156.236,376.822 155.07,338.155 154,299.5C 155.777,296.941 157.277,294.274 158.5,291.5C 162.5,287.167 166.5,282.833 170.5,278.5 Z"/></g>
<g><path style="opacity:1" fill="#fefefe" d="M -0.5,311.5 C 0.309426,312.469 1.30943,313.302 2.5,314C 16.1626,314.5 29.8293,314.667 43.5,314.5C 43.168,358.003 43.5013,401.337 44.5,444.5C 46.9292,459.385 55.5959,468.052 70.5,470.5C 126.331,471.499 182.331,471.832 238.5,471.5C 238.5,480.833 238.5,490.167 238.5,499.5C 158.833,499.5 79.1667,499.5 -0.5,499.5C -0.5,436.833 -0.5,374.167 -0.5,311.5 Z"/></g>
<g><path style="opacity:1" fill="#e05f66" d="M 499.5,327.5 C 499.5,330.5 499.5,333.5 499.5,336.5C 447.499,336.667 395.499,336.5 343.5,336C 340.833,333.333 340.833,330.667 343.5,328C 395.499,327.5 447.499,327.333 499.5,327.5 Z"/></g>
<g><path style="opacity:1" fill="#59a784" d="M 298.5,424.5 C 298.5,424.833 298.5,425.167 298.5,425.5C 256.167,425.5 213.833,425.5 171.5,425.5C 171.5,425.167 171.5,424.833 171.5,424.5C 176.833,424.5 182.167,424.5 187.5,424.5C 210.833,424.5 234.167,424.5 257.5,424.5C 257.333,403.831 257.5,383.164 258,362.5C 260.615,359.93 263.282,359.93 266,362.5C 266.208,375.195 266.874,387.862 268,400.5C 269.631,409.224 273.131,417.057 278.5,424C 285.158,424.5 291.825,424.666 298.5,424.5 Z"/></g>
<g><path style="opacity:1" fill="#e05c63" d="M 499.5,365.5 C 499.5,368.167 499.5,370.833 499.5,373.5C 447.162,373.833 394.829,373.5 342.5,372.5C 340.993,370.031 341.327,367.865 343.5,366C 395.499,365.5 447.499,365.333 499.5,365.5 Z"/></g>
<g><path style="opacity:1" fill="#8cc5b7" d="M 43.5,314.5 C 43.8333,314.5 44.1667,314.5 44.5,314.5C 44.5,351.167 44.5,387.833 44.5,424.5C 64.8333,424.5 85.1667,424.5 105.5,424.5C 110.833,424.5 116.167,424.5 121.5,424.5C 121.5,424.833 121.5,425.167 121.5,425.5C 95.8333,425.5 70.1667,425.5 44.5,425.5C 44.5,431.833 44.5,438.167 44.5,444.5C 43.5013,401.337 43.168,358.003 43.5,314.5 Z"/></g>
<g><path style="opacity:1" fill="#4d727a" d="M 121.5,425.5 C 125.833,425.5 130.167,425.5 134.5,425.5C 142.167,425.5 149.833,425.5 157.5,425.5C 162.167,425.5 166.833,425.5 171.5,425.5C 213.833,425.5 256.167,425.5 298.5,425.5C 365.5,425.5 432.5,425.5 499.5,425.5C 499.5,440.5 499.5,455.5 499.5,470.5C 356.5,470.5 213.5,470.5 70.5,470.5C 55.5959,468.052 46.9292,459.385 44.5,444.5C 44.5,438.167 44.5,431.833 44.5,425.5C 70.1667,425.5 95.8333,425.5 121.5,425.5 Z"/></g>
<g><path style="opacity:1" fill="#92b1b7" d="M 70.5,470.5 C 213.5,470.5 356.5,470.5 499.5,470.5C 499.5,470.833 499.5,471.167 499.5,471.5C 451.167,471.5 402.833,471.5 354.5,471.5C 354.5,480.833 354.5,490.167 354.5,499.5C 315.833,499.5 277.167,499.5 238.5,499.5C 238.5,490.167 238.5,480.833 238.5,471.5C 182.331,471.832 126.331,471.499 70.5,470.5 Z"/></g>
<g><path style="opacity:1" fill="#fefefe" d="M 499.5,471.5 C 499.5,480.833 499.5,490.167 499.5,499.5C 451.167,499.5 402.833,499.5 354.5,499.5C 354.5,490.167 354.5,480.833 354.5,471.5C 402.833,471.5 451.167,471.5 499.5,471.5 Z"/></g>
</svg>
